<?xml version="1.0" standalone="no"?>
<!DOCTYPE svg PUBLIC "-//W3C//DTD SVG 20010904//EN"
 "http://www.w3.org/TR/2001/REC-SVG-20010904/DTD/svg10.dtd">
<svg version="1.0" xmlns="http://www.w3.org/2000/svg"
 width="150.000000pt" height="180.000000pt" viewBox="0 0 293.000000 172.000000"
 preserveAspectRatio="xMidYMid meet">

<g transform="translate(0.000000,172.000000) scale(0.100000,-0.100000)"
fill="#000000" stroke="none">
<path d="M0 860 l0 -860 1465 0 1465 0 0 860 0 860 -1465 0 -1465 0 0 -860z
m1583 506 c3 -7 -35 -193 -84 -412 -49 -219 -96 -428 -103 -464 -25 -117 -36
-150 -52 -150 -8 0 -17 7 -20 15 -6 14 198 957 216 1003 11 24 35 30 43 8z
m-550 -20 c3 -8 -84 -103 -231 -250 l-237 -236 239 -239 c140 -140 236 -243
232 -250 -4 -6 -15 -11 -24 -11 -21 0 -502 479 -502 500 0 20 481 500 501 500
9 0 19 -6 22 -14z m1122 -236 c137 -137 247 -251 245 -254 -95 -102 -498 -496
-507 -496 -8 0 -16 7 -20 16 -4 11 60 82 228 250 l234 234 -234 234 c-168 168
-232 239 -228 250 4 9 12 16 19 16 7 0 125 -112 263 -250z m-197 89 l52 -51 0
-290 0 -289 -46 -49 -47 -50 -249 0 -250 0 7 32 c14 69 136 616 151 681 l16
67 157 0 158 0 51 -51z m-948 -89 c0 -5 -13 -10 -30 -10 -16 0 -30 5 -30 10 0
6 14 10 30 10 17 0 30 -4 30 -10z m130 0 c0 -5 -23 -10 -51 -10 -31 0 -48 4
-44 10 3 6 26 10 51 10 24 0 44 -4 44 -10z m200 0 c0 -6 -33 -10 -80 -10 -47
0 -80 4 -80 10 0 6 33 10 80 10 47 0 80 -4 80 -10z m-352 -78 c2 -7 -6 -12
-17 -12 -21 0 -27 11 -14 24 9 9 26 2 31 -12z m286 12 c26 -10 18 -24 -14 -24
-29 0 -38 9 -23 23 8 9 17 9 37 1z m-79 -14 c-3 -5 -42 -10 -86 -10 -46 0 -79
4 -79 10 0 6 35 10 86 10 54 0 83 -4 79 -10z m-145 -70 c0 -5 -22 -10 -50 -10
-27 0 -50 5 -50 10 0 6 23 10 50 10 28 0 50 -4 50 -10z m110 0 c0 -5 -18 -10
-40 -10 -22 0 -40 5 -40 10 0 6 18 10 40 10 22 0 40 -4 40 -10z m160 0 c0 -6
-27 -10 -60 -10 -33 0 -60 4 -60 10 0 6 27 10 60 10 33 0 60 -4 60 -10z m-349
-73 c-1 -12 -15 -9 -19 4 -3 6 1 10 8 8 6 -3 11 -8 11 -12z m224 3 c4 -6 -28
-10 -89 -10 -57 0 -96 4 -96 10 0 6 36 10 89 10 50 0 93 -4 96 -10z m110 0 c4
-6 -10 -10 -34 -10 -23 0 -41 5 -41 10 0 6 15 10 34 10 19 0 38 -4 41 -10z
m-220 -80 c-3 -5 -35 -10 -71 -10 -36 0 -64 4 -64 10 0 6 30 10 71 10 44 0 68
-4 64 -10z m85 0 c0 -13 -20 -13 -40 0 -12 8 -9 10 13 10 15 0 27 -4 27 -10z
m190 0 c0 -6 -32 -10 -75 -10 -43 0 -75 4 -75 10 0 6 32 10 75 10 43 0 75 -4
75 -10z m-350 -70 c0 -5 -13 -10 -30 -10 -16 0 -30 5 -30 10 0 6 14 10 30 10
17 0 30 -4 30 -10z m150 0 c0 -5 -25 -10 -55 -10 -30 0 -55 5 -55 10 0 6 25
10 55 10 30 0 55 -4 55 -10z m90 0 c0 -5 -13 -10 -30 -10 -16 0 -30 5 -30 10
0 6 14 10 30 10 17 0 30 -4 30 -10z m-200 -76 c0 -12 -10 -14 -47 -12 -66 4
-70 28 -4 28 39 0 51 -4 51 -16z m160 2 c-6 -9 -98 -16 -117 -9 -34 13 -6 24
55 21 37 -2 65 -7 62 -12z m90 4 c0 -5 -12 -10 -27 -9 l-28 1 25 8 c14 4 26 8
28 9 1 1 2 -3 2 -9z m-160 -80 c0 -6 -38 -10 -95 -10 -57 0 -95 4 -95 10 0 6
38 10 95 10 57 0 95 -4 95 -10z m90 3 c0 -5 -11 -9 -25 -9 -14 -1 -25 2 -25 7
0 5 11 9 25 9 14 0 25 -3 25 -7z m110 -3 c0 -5 -16 -10 -35 -10 -19 0 -35 5
-35 10 0 6 16 10 35 10 19 0 35 -4 35 -10z"/>
</g>
</svg>
